<?xml version="1.0" encoding="UTF-8"?>
<svg width="512px" height="512px" viewBox="0 0 512 512" version="1.1" xmlns="http://www.w3.org/2000/svg" xmlns:xlink="http://www.w3.org/1999/xlink">
    <title>icon_talk</title>
    <g id="icon_talk" stroke="none" stroke-width="1" fill="none" fill-rule="evenodd">
        <circle id="背景" fill="#3F51B5" cx="256" cy="256" r="240"></circle>
        <path d="M358,120 C384.509668,120 406,141.490332 406,168 L406,168 L406,264 C406,290.509668 384.509668,312 358,312 L358,312 L250,312 L200,368 L200,312 L154,312 C127.490332,312 106,290.509668 106,264 L106,264 L106,168 C106,141.490332 127.490332,120 154,120 L154,120 Z" id="吹き出し" fill="#FFFFFF"></path>
        <circle id="丸1" fill="#3F51B5" cx="160" cy="220" r="24"></circle>
        <circle id="丸2" fill="#3F51B5" cx="256" cy="220" r="24"></circle>
        <circle id="丸3" fill="#3F51B5" cx="352" cy="220" r="24"></circle>
    </g>
</svg> 